<svg viewBox="312.2063 263.6995 85.2383 66.601" width="62" height="48.443739492692835" xmlns="http://www.w3.org/2000/svg" xmlns:xlink="http://www.w3.org/1999/xlink" preserveAspectRatio="none"><defs></defs><style>.aIptOCySncolors-0a2ZHtqS78R {fill:#020C53;fill-opacity:1;}</style><g opacity="1" transform="rotate(0 312.2063 263.6995)">
<svg width="85.2383" height="66.601" x="312.2063" y="263.6995" version="1.1" preserveAspectRatio="none" viewBox="4.690432548522949 14.984000205993652 89.99878692626953 70.32064819335938">
  <g transform="matrix(1 0 0 1 0 0)" class="aIptOCySncolors-0a2ZHtqS78R"><path d="M62.974,32.442c-1.754-2.04-5.149-2.332-7.777-1.102c-3.613,1.692-6.206,0.829-7.724,0.095  c-2.015-0.982-3.321-0.994-5.024,0.47L6.278,63.003c-1.703,1.464-2.178,4.214-0.722,5.907l6.595,7.671l6.156,7.161  c1.456,1.693,4.684,2.146,6.387,0.682l36.171-31.098c1.703-1.464,1.667-3.013,0.999-5.152c-0.499-1.612-0.665-4.638,1.142-7.75  C64.838,37.271,64.619,34.355,62.974,32.442z M20.076,62.044l21.126-18.163c0.435-0.372,1.085-0.322,1.456,0.109  c0.372,0.433,0.323,1.085-0.109,1.456L21.424,63.609c-0.196,0.168-0.435,0.25-0.674,0.25c-0.29,0-0.579-0.122-0.783-0.359  C19.595,63.068,19.645,62.415,20.076,62.044z M50.781,47.827L21.409,73.08c-0.196,0.168-0.435,0.25-0.674,0.25  c-0.29,0-0.579-0.122-0.783-0.359c-0.372-0.433-0.323-1.085,0.109-1.456l29.372-25.252c0.435-0.373,1.085-0.323,1.456,0.109  C51.262,46.804,51.212,47.456,50.781,47.827z M61.044,37.254c-0.13,0.85-0.58,1.941-1.267,2.531C59.092,40.376,58.241,41,57.381,41  c-0.001,0-0.003,0-0.005,0c-0.905,0-1.743-0.68-2.301-1.329c-1.13-1.316-0.86-3.563,0.601-4.821  c1.462-1.259,3.574-1.288,4.704,0.027C60.94,35.528,61.183,36.359,61.044,37.254z"></path><path d="M88.712,14.986c-0.051-0.001-0.103-0.002-0.155-0.002c-2.831,0-8.138,2.142-10.947,8.425  c-1.389-0.224-2.969-0.36-4.866-0.293c-11.866,0.406-15.962,13.019-16.002,13.146c-0.042,0.134-0.054,0.27-0.042,0.401  c-0.309,0.514-0.357,1.349-0.06,1.695C56.867,38.62,57.198,39,57.376,39c0.001,0,0.002,0,0.002,0c0.362,0,0.746-0.493,1.054-0.758  c0.309-0.265,0.517-0.792,0.572-1.15c0.022-0.144,0.026-0.464-0.095-0.704c0.876-2.256,4.809-10.875,13.907-11.187  c1.559-0.051,2.868,0.026,4.044,0.192c-0.37,1.162-0.662,2.434-0.851,3.835c-1.654,12.225-5.988,12.507-5.999,12.509  c-0.55-0.042-1.047,0.526-1.066,1.097C68.923,43.404,69.37,44,69.94,44c0.016,0,0.035,0,0.056,0c0.85,0,6.199-0.657,8.058-14.4  c0.187-1.381,0.479-2.672,0.851-3.787c0.586,0.131,1.149,0.248,1.707,0.388c1.823,0.462,3.545,0.878,5.635,0.784  c5.323-0.251,8.472-3.806,8.442-7.094C94.67,17.71,93.093,15.112,88.712,14.986z M86.152,24.909  c-1.789,0.087-3.29-0.295-5.033-0.735c-0.461-0.117-0.935-0.236-1.43-0.352c2.462-5.126,6.754-6.857,8.964-6.771  c2.472,0.071,3.956,1.138,3.972,2.853C92.646,22.164,90.176,24.72,86.152,24.909z"></path></g>
</svg>
</g></svg>